<svg width="24" height="24" viewBox="0 0 24 24" fill="none" xmlns="http://www.w3.org/2000/svg">
<rect width="24" height="24" fill="#F7931E"/>
<g clip-path="url(#clip0)">
<path d="M11.8884 4C9.48585 4 7.53143 5.85234 7.53143 8.1295C7.53143 10.4065 9.48585 12.258 11.8884 12.258C14.2908 12.258 16.2443 10.4065 16.2443 8.1295C16.2443 5.85234 14.2908 4 11.8884 4ZM11.8884 6.4195C12.8827 6.4195 13.6913 7.18698 13.6913 8.1295C13.6913 9.07163 12.8827 9.83851 11.8884 9.83851C10.8938 9.83851 10.0844 9.07165 10.0844 8.1295C10.0844 7.18698 10.8938 6.4195 11.8884 6.4195ZM8.29627 12.3985C7.86521 12.3921 7.44133 12.5936 7.19543 12.965C6.81965 13.5309 6.99966 14.2776 7.59526 14.6335C8.38308 15.102 9.23796 15.4344 10.1245 15.626L7.68969 17.935C7.19124 18.4077 7.19167 19.1733 7.69021 19.646C7.94009 19.8819 8.26599 20 8.59272 20C8.91912 20 9.24612 19.8817 9.49524 19.6455L11.8873 17.377L14.2815 19.6455C14.7796 20.1181 15.5871 20.1181 16.086 19.6455C16.5847 19.1731 16.5847 18.4067 16.086 17.935L13.6501 15.6265C14.5369 15.4349 15.3921 15.1023 16.1794 14.6335C16.7762 14.2776 16.9565 13.5301 16.5808 12.965C16.2047 12.399 15.4173 12.2285 14.8201 12.585C13.0364 13.6485 10.7382 13.6478 8.95509 12.585C8.74983 12.4625 8.52207 12.4018 8.29627 12.3985V12.3985Z" fill="white"/>
</g>
<defs>
<clipPath id="clip0">
<rect width="9.77778" height="16" fill="white" transform="translate(7 4)"/>
</clipPath>
</defs>
</svg>
