<svg width="24" height="24" viewBox="0 0 24 24" fill="none" xmlns="http://www.w3.org/2000/svg">
<rect width="24" height="24" fill="#3688C8"/>
<g clip-path="url(#clip0)">
<path d="M11.724 7.51054C12.9455 7.51054 14.0965 8.05204 14.94 8.89854V8.90104C14.94 8.49454 15.2135 8.18704 15.5915 8.18704H15.6875C16.284 8.18704 16.4035 8.74954 16.4035 8.92704L16.406 15.2445C16.3645 15.6585 16.8335 15.8725 17.094 15.6065C18.1065 14.565 19.32 10.247 16.4635 7.74704C13.7995 5.41354 10.224 5.79904 8.323 7.10904C6.3025 8.50504 5.011 11.5885 6.2655 14.4865C7.6355 17.646 11.552 18.5885 13.883 17.6485C15.063 17.172 15.607 18.765 14.3805 19.2865C12.532 20.075 7.3805 19.9945 4.9745 15.828C3.349 13.0135 3.435 8.06254 7.748 5.49754C11.0445 3.53404 15.394 4.07804 18.016 6.81554C20.756 9.68004 20.5975 15.0395 17.9225 17.123C16.711 18.0705 14.912 17.149 14.925 15.7685L14.9115 15.3185C14.068 16.154 12.9455 16.644 11.724 16.644C9.3075 16.644 7.18 14.516 7.18 12.102C7.18 9.66204 9.3075 7.51154 11.724 7.51154V7.51054ZM14.7635 11.9275C14.672 10.159 13.3595 9.09404 11.7735 9.09404H11.7135C9.8855 9.09404 8.87 10.534 8.87 12.1665C8.87 13.997 10.0965 15.153 11.706 15.153C13.5025 15.153 14.682 13.8385 14.768 12.2835L14.7635 11.9275Z" fill="#FAA832"/>
</g>
<defs>
<clipPath id="clip0">
<rect width="16" height="16" fill="white" transform="translate(4 4)"/>
</clipPath>
</defs>
</svg>
